<?xml version="1.0" encoding="UTF-8" standalone="no"?><!-- Generator: Gravit.io --><svg xmlns="http://www.w3.org/2000/svg" xmlns:xlink="http://www.w3.org/1999/xlink" style="isolation:isolate" viewBox="0 0 735 600" width="735pt" height="600pt"><defs><clipPath id="_clipPath_PXg5Hx7G6PK5229AjTDWKK1MJ0CyC1Dw"><rect width="735" height="600"/></clipPath></defs><g clip-path="url(#_clipPath_PXg5Hx7G6PK5229AjTDWKK1MJ0CyC1Dw)"><g><g><g><path d=" M 322.873 328.566 L 214.191 222.694 L 87.215 99 L 77.291 99 L 75.265 104.016 C 69.917 117.254 67.632 130.794 68.658 143.17 C 69.828 157.278 75.329 169.492 84.569 178.493 L 183.694 275.055 L 196.768 262.318 L 288.409 362.14 C 297.525 371.021 313.216 371.548 322.873 362.14 C 332.376 352.883 332.376 337.823 322.873 328.566 Z " fill="rgb(0,0,0)"/></g></g><g><g><path d=" M 137.76 252.69 L 60.126 328.317 C 50.625 337.573 50.625 352.634 60.126 361.89 C 69.152 370.683 84.767 371.459 94.591 361.89 L 172.225 286.263 L 137.76 252.69 Z " fill="rgb(0,0,0)"/></g></g><g><g><path d=" M 318.31 143.955 L 274.272 186.855 L 262.783 175.664 L 306.821 132.764 L 295.333 121.572 L 251.295 164.472 L 239.807 153.28 L 283.845 110.381 L 272.357 99.19 L 214.916 155.147 C 207.889 161.992 203.693 171.081 203.1 180.741 C 202.95 183.189 202.38 185.596 201.436 187.886 L 238.75 224.235 C 241.1 223.314 243.572 222.759 246.084 222.613 C 256 222.037 265.33 217.949 272.357 211.103 L 329.799 155.147 L 318.31 143.955 Z " fill="rgb(0,0,0)"/></g></g></g><text transform="matrix(1,0,0,1,330,196.12)" style="font-family:'Passion One';font-weight:400;font-size:60px;font-style:normal;fill:#000000;stroke:none;">E-COMMERCE</text><text transform="matrix(1,0,0,1,330,340.522)" style="font-family:'Passion One';font-weight:400;font-size:150px;font-style:normal;fill:#000000;stroke:none;">F</text><text transform="matrix(1,0,0,1,387.75,340.522)" style="font-family:'Passion One';font-weight:400;font-size:150px;font-style:normal;fill:#4b954b;stroke:none;">OO</text><text transform="matrix(1,0,0,1,549.15,340.522)" style="font-family:'Passion One';font-weight:400;font-size:150px;font-style:normal;fill:#000000;stroke:none;">D</text></g></svg>